<mxfile host="65bd71144e" scale="2" border="0">
    <diagram id="lRwunp---gVruRk167lT" name="Page-1">
        <mxGraphModel dx="2830" dy="1284" grid="1" gridSize="10" guides="1" tooltips="1" connect="1" arrows="1" fold="1" page="1" pageScale="1" pageWidth="850" pageHeight="1100" math="0" shadow="0">
            <root>
                <mxCell id="0"/>
                <mxCell id="1" parent="0"/>
                <mxCell id="4" value="" style="rounded=0;whiteSpace=wrap;html=1;strokeColor=none;fillColor=#E6E6E6;" parent="1" vertex="1">
                    <mxGeometry x="-70" y="302.5" width="1830" height="1080" as="geometry"/>
                </mxCell>
                <mxCell id="24" value="&lt;font color=&quot;#0077ff&quot; style=&quot;&quot;&gt;&lt;br&gt;&lt;/font&gt;" style="rounded=0;whiteSpace=wrap;html=1;strokeColor=#0077FF;fillColor=none;shadow=0;" parent="1" vertex="1">
                    <mxGeometry x="317.5" y="1065" width="622.5" height="180" as="geometry"/>
                </mxCell>
                <mxCell id="14" value="" style="rounded=0;whiteSpace=wrap;html=1;strokeColor=#0077FF;fontSize=14;fontColor=#0077FF;fillColor=none;" parent="1" vertex="1">
                    <mxGeometry x="317.5" y="615" width="622.5" height="380" as="geometry"/>
                </mxCell>
                <mxCell id="2" value="&lt;font color=&quot;#0077ff&quot; style=&quot;&quot;&gt;&lt;span style=&quot;font-weight: bold; font-size: 22px;&quot;&gt;shai&lt;/span&gt;&lt;br&gt;&lt;font style=&quot;font-size: 14px;&quot;&gt;shell with ai&lt;/font&gt;&lt;br&gt;&lt;/font&gt;" style="rounded=1;whiteSpace=wrap;html=1;strokeColor=#0077FF;fillColor=none;shadow=0;" parent="1" vertex="1">
                    <mxGeometry x="398.75" y="755" width="200" height="100" as="geometry"/>
                </mxCell>
                <mxCell id="3" value="$&amp;nbsp;shai [OPTIONS] COMMAND" style="text;html=1;strokeColor=none;fillColor=none;align=center;verticalAlign=middle;whiteSpace=wrap;rounded=0;fontStyle=1;dashed=1;fontColor=#0077FF;fontSize=14;" parent="1" vertex="1">
                    <mxGeometry x="32.5" y="782.5" width="220" height="45" as="geometry"/>
                </mxCell>
                <mxCell id="5" value="$&amp;nbsp;shup [OPTIONS] COMMAND" style="text;html=1;strokeColor=none;fillColor=none;align=center;verticalAlign=middle;whiteSpace=wrap;rounded=0;fontStyle=1;dashed=1;fontColor=#0077FF;fontSize=14;" parent="1" vertex="1">
                    <mxGeometry x="27.5" y="462.5" width="230" height="45" as="geometry"/>
                </mxCell>
                <mxCell id="6" value="" style="endArrow=classic;html=1;fontSize=14;fontColor=#0077FF;entryX=0;entryY=0.5;entryDx=0;entryDy=0;exitX=1;exitY=0.5;exitDx=0;exitDy=0;strokeColor=#0077FF;" parent="1" source="3" target="14" edge="1">
                    <mxGeometry width="50" height="50" relative="1" as="geometry">
                        <mxPoint x="652.5" y="772.5" as="sourcePoint"/>
                        <mxPoint x="702.5" y="722.5" as="targetPoint"/>
                    </mxGeometry>
                </mxCell>
                <mxCell id="7" value="&lt;font color=&quot;#0077ff&quot; style=&quot;&quot;&gt;&lt;span style=&quot;font-weight: bold; font-size: 22px;&quot;&gt;shup&lt;/span&gt;&lt;br&gt;&lt;font style=&quot;font-size: 14px;&quot;&gt;shai installer&lt;/font&gt;&lt;br&gt;&lt;/font&gt;" style="rounded=1;whiteSpace=wrap;html=1;strokeColor=#0077FF;fillColor=none;shadow=0;" parent="1" vertex="1">
                    <mxGeometry x="528.75" y="435" width="200" height="100" as="geometry"/>
                </mxCell>
                <mxCell id="8" value="&lt;font color=&quot;#0077ff&quot; style=&quot;&quot;&gt;&lt;span style=&quot;font-weight: bold; font-size: 22px;&quot;&gt;shdrive&lt;/span&gt;&lt;br&gt;&lt;font style=&quot;font-size: 14px;&quot;&gt;shai server &amp;amp; proxy&lt;/font&gt;&lt;br&gt;&lt;/font&gt;" style="rounded=0;whiteSpace=wrap;html=1;strokeColor=#0077FF;fillColor=none;shadow=0;" parent="1" vertex="1">
                    <mxGeometry x="1120" y="435" width="200" height="815" as="geometry"/>
                </mxCell>
                <mxCell id="9" value="&lt;span style=&quot;border-color: var(--border-color); color: rgb(0, 119, 255); font-weight: bold; font-size: 22px;&quot;&gt;shterm&lt;/span&gt;&lt;br style=&quot;border-color: var(--border-color); color: rgb(0, 119, 255);&quot;&gt;&lt;font style=&quot;border-color: var(--border-color); color: rgb(0, 119, 255); font-size: 14px;&quot;&gt;shai terminal&lt;/font&gt;&lt;font color=&quot;#0077ff&quot; style=&quot;&quot;&gt;&lt;br&gt;&lt;/font&gt;" style="rounded=1;whiteSpace=wrap;html=1;strokeColor=#0077FF;fillColor=none;shadow=0;" parent="1" vertex="1">
                    <mxGeometry x="658.75" y="668.75" width="200" height="100" as="geometry"/>
                </mxCell>
                <mxCell id="12" value="" style="endArrow=classic;html=1;fontSize=14;fontColor=#0077FF;entryX=0;entryY=0.5;entryDx=0;entryDy=0;exitX=1;exitY=0.5;exitDx=0;exitDy=0;strokeColor=#0077FF;" parent="1" source="5" target="7" edge="1">
                    <mxGeometry width="50" height="50" relative="1" as="geometry">
                        <mxPoint x="302.5" y="282.5" as="sourcePoint"/>
                        <mxPoint x="362.5" y="282.5" as="targetPoint"/>
                    </mxGeometry>
                </mxCell>
                <mxCell id="15" value="&lt;font color=&quot;#0077ff&quot; style=&quot;&quot;&gt;&lt;br&gt;&lt;/font&gt;" style="rounded=0;whiteSpace=wrap;html=1;strokeColor=#0077FF;fillColor=none;shadow=0;" parent="1" vertex="1">
                    <mxGeometry x="1430" y="435" width="200" height="813.75" as="geometry"/>
                </mxCell>
                <mxCell id="16" value="&lt;font color=&quot;#0077ff&quot; style=&quot;&quot;&gt;&lt;b style=&quot;&quot;&gt;&lt;font style=&quot;font-size: 14px;&quot;&gt;local llm&lt;/font&gt;&lt;/b&gt;&lt;br&gt;&lt;/font&gt;" style="rounded=1;whiteSpace=wrap;html=1;strokeColor=#0077FF;fillColor=none;shadow=0;" parent="1" vertex="1">
                    <mxGeometry x="1480" y="607.5" width="100" height="50" as="geometry"/>
                </mxCell>
                <mxCell id="17" value="&lt;font color=&quot;#0077ff&quot; style=&quot;&quot;&gt;&lt;b style=&quot;&quot;&gt;&lt;font style=&quot;font-size: 14px;&quot;&gt;local rag&lt;/font&gt;&lt;/b&gt;&lt;br&gt;&lt;/font&gt;" style="rounded=1;whiteSpace=wrap;html=1;strokeColor=#0077FF;fillColor=none;shadow=0;" parent="1" vertex="1">
                    <mxGeometry x="1480" y="750" width="100" height="50" as="geometry"/>
                </mxCell>
                <mxCell id="18" value="&lt;font color=&quot;#0077ff&quot; style=&quot;&quot;&gt;&lt;b style=&quot;&quot;&gt;&lt;font style=&quot;font-size: 14px;&quot;&gt;remote llm&lt;/font&gt;&lt;/b&gt;&lt;br&gt;&lt;/font&gt;" style="rounded=1;whiteSpace=wrap;html=1;strokeColor=#0077FF;fillColor=none;shadow=0;" parent="1" vertex="1">
                    <mxGeometry x="1480" y="888.75" width="100" height="50" as="geometry"/>
                </mxCell>
                <mxCell id="19" value="&lt;font color=&quot;#0077ff&quot; style=&quot;&quot;&gt;&lt;b style=&quot;&quot;&gt;&lt;font style=&quot;font-size: 14px;&quot;&gt;remote rag&lt;/font&gt;&lt;/b&gt;&lt;br&gt;&lt;/font&gt;" style="rounded=1;whiteSpace=wrap;html=1;strokeColor=#0077FF;fillColor=none;shadow=0;" parent="1" vertex="1">
                    <mxGeometry x="1480" y="1027.5" width="100" height="50" as="geometry"/>
                </mxCell>
                <mxCell id="21" value="" style="endArrow=classic;html=1;fontSize=14;fontColor=#0077FF;entryX=0.006;entryY=0.059;entryDx=0;entryDy=0;exitX=1;exitY=0.5;exitDx=0;exitDy=0;strokeColor=#0077FF;entryPerimeter=0;" parent="1" source="7" target="8" edge="1">
                    <mxGeometry width="50" height="50" relative="1" as="geometry">
                        <mxPoint x="267.5" y="495" as="sourcePoint"/>
                        <mxPoint x="382.5" y="495" as="targetPoint"/>
                    </mxGeometry>
                </mxCell>
                <mxCell id="22" value="" style="endArrow=classic;html=1;fontSize=14;fontColor=#0077FF;entryX=-0.002;entryY=0.453;entryDx=0;entryDy=0;exitX=1;exitY=0.5;exitDx=0;exitDy=0;strokeColor=#0077FF;entryPerimeter=0;" parent="1" source="14" target="8" edge="1">
                    <mxGeometry width="50" height="50" relative="1" as="geometry">
                        <mxPoint x="582.5" y="495" as="sourcePoint"/>
                        <mxPoint x="744.3000000000002" y="495.2850000000001" as="targetPoint"/>
                    </mxGeometry>
                </mxCell>
                <mxCell id="23" value="" style="endArrow=classic;html=1;fontSize=14;fontColor=#0077FF;exitX=1;exitY=0.5;exitDx=0;exitDy=0;strokeColor=#0077FF;entryX=0;entryY=0.5;entryDx=0;entryDy=0;" parent="1" source="8" target="15" edge="1">
                    <mxGeometry width="50" height="50" relative="1" as="geometry">
                        <mxPoint x="1015" y="815" as="sourcePoint"/>
                        <mxPoint x="1430" y="840" as="targetPoint"/>
                    </mxGeometry>
                </mxCell>
                <mxCell id="25" value="&lt;font color=&quot;#0077ff&quot; style=&quot;&quot;&gt;&lt;b style=&quot;&quot;&gt;&lt;font style=&quot;font-size: 14px;&quot;&gt;artifactgpt&lt;/font&gt;&lt;/b&gt;&lt;br&gt;&lt;/font&gt;" style="rounded=1;whiteSpace=wrap;html=1;strokeColor=#0077FF;fillColor=none;shadow=0;" parent="1" vertex="1">
                    <mxGeometry x="438.13" y="1092.5" width="100" height="50" as="geometry"/>
                </mxCell>
                <mxCell id="26" value="&lt;font color=&quot;#0077ff&quot; style=&quot;&quot;&gt;&lt;b style=&quot;&quot;&gt;&lt;font style=&quot;font-size: 14px;&quot;&gt;buildgpt&lt;/font&gt;&lt;/b&gt;&lt;br&gt;&lt;/font&gt;" style="rounded=1;whiteSpace=wrap;html=1;strokeColor=#0077FF;fillColor=none;shadow=0;" parent="1" vertex="1">
                    <mxGeometry x="578.13" y="1092.5" width="100" height="50" as="geometry"/>
                </mxCell>
                <mxCell id="27" value="&lt;font color=&quot;#0077ff&quot; style=&quot;&quot;&gt;&lt;b style=&quot;&quot;&gt;&lt;font style=&quot;font-size: 14px;&quot;&gt;codegpt&lt;/font&gt;&lt;/b&gt;&lt;br&gt;&lt;/font&gt;" style="rounded=1;whiteSpace=wrap;html=1;strokeColor=#0077FF;fillColor=none;shadow=0;" parent="1" vertex="1">
                    <mxGeometry x="720.63" y="1092.5" width="100" height="50" as="geometry"/>
                </mxCell>
                <mxCell id="28" value="&lt;font color=&quot;#0077ff&quot; style=&quot;&quot;&gt;&lt;b style=&quot;&quot;&gt;&lt;font style=&quot;font-size: 14px;&quot;&gt;gitgpt&lt;/font&gt;&lt;/b&gt;&lt;br&gt;&lt;/font&gt;" style="rounded=1;whiteSpace=wrap;html=1;strokeColor=#0077FF;fillColor=none;shadow=0;" parent="1" vertex="1">
                    <mxGeometry x="436.88" y="1167.5" width="100" height="50" as="geometry"/>
                </mxCell>
                <mxCell id="29" value="&lt;font color=&quot;#0077ff&quot; style=&quot;&quot;&gt;&lt;b style=&quot;&quot;&gt;&lt;font style=&quot;font-size: 14px;&quot;&gt;lintgpt&lt;/font&gt;&lt;/b&gt;&lt;br&gt;&lt;/font&gt;" style="rounded=1;whiteSpace=wrap;html=1;strokeColor=#0077FF;fillColor=none;shadow=0;" parent="1" vertex="1">
                    <mxGeometry x="576.88" y="1167.5" width="100" height="50" as="geometry"/>
                </mxCell>
                <mxCell id="30" value="&lt;font color=&quot;#0077ff&quot; style=&quot;&quot;&gt;&lt;b style=&quot;&quot;&gt;&lt;font style=&quot;font-size: 14px;&quot;&gt;metalgpt&lt;/font&gt;&lt;/b&gt;&lt;br&gt;&lt;/font&gt;" style="rounded=1;whiteSpace=wrap;html=1;strokeColor=#0077FF;fillColor=none;shadow=0;" parent="1" vertex="1">
                    <mxGeometry x="719.38" y="1167.5" width="100" height="50" as="geometry"/>
                </mxCell>
                <mxCell id="33" value="shgpt" style="text;strokeColor=none;fillColor=none;html=1;fontSize=14;fontStyle=1;verticalAlign=middle;align=center;rounded=0;shadow=0;fontColor=#0077FF;" parent="1" vertex="1">
                    <mxGeometry x="317.5" y="1065" width="65" height="40" as="geometry"/>
                </mxCell>
                <mxCell id="34" value="shai" style="text;strokeColor=none;fillColor=none;html=1;fontSize=14;fontStyle=1;verticalAlign=middle;align=center;rounded=0;shadow=0;fontColor=#0077FF;" parent="1" vertex="1">
                    <mxGeometry x="317.5" y="615" width="65" height="40" as="geometry"/>
                </mxCell>
                <mxCell id="35" value="shdrive" style="text;strokeColor=none;fillColor=none;html=1;fontSize=14;fontStyle=1;verticalAlign=middle;align=center;rounded=0;shadow=0;fontColor=#0077FF;" parent="1" vertex="1">
                    <mxGeometry x="1430" y="435" width="77.5" height="40" as="geometry"/>
                </mxCell>
                <mxCell id="36" value="" style="endArrow=none;html=1;strokeColor=#0077FF;dashed=1;" edge="1" parent="1">
                    <mxGeometry width="50" height="50" relative="1" as="geometry">
                        <mxPoint x="1030" y="1312.5" as="sourcePoint"/>
                        <mxPoint x="1030" y="367.5" as="targetPoint"/>
                    </mxGeometry>
                </mxCell>
                <mxCell id="37" value="&lt;font color=&quot;#0077ff&quot; style=&quot;&quot;&gt;&lt;span style=&quot;font-weight: bold; font-size: 22px;&quot;&gt;shgpt&lt;/span&gt;&lt;br&gt;&lt;font style=&quot;font-size: 14px;&quot;&gt;shai gpt&lt;/font&gt;&lt;br&gt;&lt;/font&gt;" style="rounded=1;whiteSpace=wrap;html=1;strokeColor=#0077FF;fillColor=none;shadow=0;" vertex="1" parent="1">
                    <mxGeometry x="658.75" y="841.25" width="200" height="100" as="geometry"/>
                </mxCell>
                <mxCell id="38" value="" style="edgeStyle=elbowEdgeStyle;elbow=horizontal;endArrow=classic;html=1;rounded=1;endSize=8;startSize=8;dashed=1;strokeColor=#0077FF;exitX=1;exitY=0.5;exitDx=0;exitDy=0;entryX=0;entryY=0.5;entryDx=0;entryDy=0;" edge="1" parent="1" source="2" target="9">
                    <mxGeometry width="50" height="50" relative="1" as="geometry">
                        <mxPoint x="960" y="980" as="sourcePoint"/>
                        <mxPoint x="1010" y="930" as="targetPoint"/>
                    </mxGeometry>
                </mxCell>
                <mxCell id="39" value="" style="edgeStyle=elbowEdgeStyle;elbow=horizontal;endArrow=classic;html=1;rounded=1;endSize=8;startSize=8;dashed=1;strokeColor=#0077FF;exitX=1;exitY=0.5;exitDx=0;exitDy=0;entryX=0;entryY=0.5;entryDx=0;entryDy=0;" edge="1" parent="1" source="2" target="37">
                    <mxGeometry width="50" height="50" relative="1" as="geometry">
                        <mxPoint x="608.75" y="803.75" as="sourcePoint"/>
                        <mxPoint x="668.75" y="728.75" as="targetPoint"/>
                    </mxGeometry>
                </mxCell>
                <mxCell id="41" value="" style="endArrow=classic;startArrow=classic;html=1;rounded=1;strokeColor=#0077FF;entryX=0.5;entryY=0;entryDx=0;entryDy=0;exitX=0.5;exitY=1;exitDx=0;exitDy=0;" edge="1" parent="1" source="7" target="14">
                    <mxGeometry width="50" height="50" relative="1" as="geometry">
                        <mxPoint x="830" y="900" as="sourcePoint"/>
                        <mxPoint x="880" y="850" as="targetPoint"/>
                    </mxGeometry>
                </mxCell>
                <mxCell id="42" value="" style="endArrow=classic;startArrow=classic;html=1;rounded=1;strokeColor=#0077FF;entryX=0.5;entryY=0;entryDx=0;entryDy=0;exitX=0.5;exitY=1;exitDx=0;exitDy=0;" edge="1" parent="1" source="14" target="24">
                    <mxGeometry width="50" height="50" relative="1" as="geometry">
                        <mxPoint x="638.75" y="545" as="sourcePoint"/>
                        <mxPoint x="638.75" y="625" as="targetPoint"/>
                    </mxGeometry>
                </mxCell>
                <mxCell id="43" value="shai" style="text;html=1;strokeColor=none;fillColor=none;align=center;verticalAlign=middle;whiteSpace=wrap;rounded=0;fontSize=32;fontStyle=1;fontColor=#0077FF;" vertex="1" parent="1">
                    <mxGeometry x="-70" y="302.5" width="130" height="77.5" as="geometry"/>
                </mxCell>
            </root>
        </mxGraphModel>
    </diagram>
</mxfile>